<svg height="512" viewBox="0 0 128 128" width="512" xmlns="http://www.w3.org/2000/svg"><g><path d="m105.988 54.716-34.768-32.84a10.514 10.514 0 0 0 -14.442 0l-34.769 32.84a9.594 9.594 0 0 0 -3.009 6.975v38.322a8.983 8.983 0 0 0 8.986 8.987h21.114v-29a7.21 7.21 0 0 1 7.21-7.21h15.382a7.21 7.21 0 0 1 7.21 7.21v29h21.11a8.982 8.982 0 0 0 8.982-8.983v-38.326a9.594 9.594 0 0 0 -3.006-6.975z" fill="#ef5656"/><g fill="#db4949"><path d="m19 93.165v6.848a8.983 8.983 0 0 0 8.986 8.987h21.114v-6.848h-21.114a8.983 8.983 0 0 1 -8.986-8.987z"/><path d="m100.012 102.148h-21.112v6.852h21.11a8.982 8.982 0 0 0 8.982-8.983v-6.852a8.982 8.982 0 0 1 -8.98 8.983z"/><path d="m78.9 73.144a7.21 7.21 0 0 0 -7.21-7.21h-15.385a7.21 7.21 0 0 0 -7.21 7.21v6.848a7.21 7.21 0 0 1 7.21-7.21h15.387a7.21 7.21 0 0 1 7.21 7.21z"/></g><g fill="#3c0f6d"><path d="m107.19 53.444-34.769-32.844a12.274 12.274 0 0 0 -16.845 0l-34.768 32.844a11.385 11.385 0 0 0 -3.555 8.246v38.323a10.745 10.745 0 0 0 10.733 10.733h21.114a1.751 1.751 0 0 0 1.75-1.75v-29a5.466 5.466 0 0 1 5.46-5.46h15.382a5.466 5.466 0 0 1 5.46 5.46v29a1.751 1.751 0 0 0 1.75 1.75h21.11a10.745 10.745 0 0 0 10.733-10.733v-5.208a1.75 1.75 0 0 0 -3.5 0v5.208a7.242 7.242 0 0 1 -7.233 7.233h-19.36v-27.254a8.97 8.97 0 0 0 -8.96-8.96h-15.387a8.97 8.97 0 0 0 -8.96 8.96v27.254h-19.359a7.242 7.242 0 0 1 -7.233-7.233v-38.323a7.877 7.877 0 0 1 2.458-5.7l34.768-32.84a8.774 8.774 0 0 1 12.039 0l34.769 32.841a7.873 7.873 0 0 1 2.458 5.7v10.943a1.75 1.75 0 1 0 3.5 0v-10.944a11.389 11.389 0 0 0 -3.555-8.246z"/><path d="m109 81.458a1.749 1.749 0 0 0 -1.75 1.75v.783a1.75 1.75 0 0 0 3.5 0v-.783a1.75 1.75 0 0 0 -1.75-1.75z"/></g></g></svg>